<?xml version="1.0" encoding="UTF-8"?>
<!--
  enemy_skeleton.svg — Original placeholder sprite
  License: Public Domain (CC0)
  Author: Generated for vampire-survival-assets prototype
  Description: Simple skeleton enemy, 28x32
-->
<svg xmlns="http://www.w3.org/2000/svg" width="28" height="32" viewBox="0 0 28 32">
  <!-- Skull -->
  <ellipse cx="14" cy="8" rx="7" ry="8" fill="#e8dcc8"/>
  <!-- Eye sockets -->
  <ellipse cx="11" cy="7" rx="2.5" ry="2.5" fill="#1a1a1a"/>
  <ellipse cx="17" cy="7" rx="2.5" ry="2.5" fill="#1a1a1a"/>
  <!-- Nose cavity -->
  <polygon points="14,9 13,11 15,11" fill="#1a1a1a"/>
  <!-- Jaw -->
  <path d="M9,13 Q14,16 19,13" fill="#e8dcc8" stroke="#c8bca8" stroke-width="0.5"/>
  <!-- Teeth lines -->
  <line x1="11" y1="13.5" x2="11" y2="15" stroke="#c8bca8" stroke-width="0.5"/>
  <line x1="14" y1="14" x2="14" y2="16" stroke="#c8bca8" stroke-width="0.5"/>
  <line x1="17" y1="13.5" x2="17" y2="15" stroke="#c8bca8" stroke-width="0.5"/>
  <!-- Spine -->
  <rect x="12.5" y="16" width="3" height="10" rx="1" fill="#e8dcc8"/>
  <!-- Ribs -->
  <path d="M10,18 Q12.5,19 15,18" fill="none" stroke="#e8dcc8" stroke-width="1.5"/>
  <path d="M10,20 Q12.5,21 15,20" fill="none" stroke="#e8dcc8" stroke-width="1.5"/>
  <path d="M10,22 Q12.5,23 15,22" fill="none" stroke="#e8dcc8" stroke-width="1.5"/>
  <!-- Pelvis -->
  <path d="M9,26 Q14,28 19,26" fill="#e8dcc8"/>
  <!-- Legs -->
  <rect x="10" y="27" width="2" height="5" rx="0.75" fill="#e8dcc8"/>
  <rect x="16" y="27" width="2" height="5" rx="0.75" fill="#e8dcc8"/>
  <!-- Arms -->
  <path d="M10,18 Q6,20 5,24" fill="none" stroke="#e8dcc8" stroke-width="2" stroke-linecap="round"/>
  <path d="M18,18 Q22,20 23,24" fill="none" stroke="#e8dcc8" stroke-width="2" stroke-linecap="round"/>
</svg>
